<mxfile host="app.diagrams.net" modified="2020-09-16T16:39:53.074Z" agent="5.0 (Windows NT 10.0; Win64; x64) AppleWebKit/537.36 (KHTML, like Gecko) Chrome/85.0.4183.102 Safari/537.36" etag="eFabrcfE9PUj-qv_3In-" version="13.7.1" type="github">
  <diagram id="7w60Y6D1dDrkf24Q0bfc" name="Page-1">
    <mxGraphModel dx="1560" dy="632" grid="1" gridSize="10" guides="1" tooltips="1" connect="1" arrows="1" fold="1" page="1" pageScale="1" pageWidth="827" pageHeight="1169" math="0" shadow="0">
      <root>
        <mxCell id="0" />
        <mxCell id="1" parent="0" />
        <mxCell id="KQcOtN7dzlKegNRBwBD5-45" value="" style="rhombus;whiteSpace=wrap;html=1;strokeColor=#000000;" vertex="1" parent="1">
          <mxGeometry x="200" y="200" width="150" height="100" as="geometry" />
        </mxCell>
        <mxCell id="KQcOtN7dzlKegNRBwBD5-3" value="&lt;u&gt;Airport_code&lt;/u&gt;" style="ellipse;whiteSpace=wrap;html=1;strokeColor=#000000;" vertex="1" parent="1">
          <mxGeometry x="-160" y="30" width="90" height="30" as="geometry" />
        </mxCell>
        <mxCell id="KQcOtN7dzlKegNRBwBD5-7" value="City" style="ellipse;whiteSpace=wrap;html=1;strokeColor=#000000;" vertex="1" parent="1">
          <mxGeometry x="-60" y="35" width="50" height="20" as="geometry" />
        </mxCell>
        <mxCell id="KQcOtN7dzlKegNRBwBD5-8" value="Name" style="ellipse;whiteSpace=wrap;html=1;strokeColor=#000000;" vertex="1" parent="1">
          <mxGeometry x="60" y="35" width="50" height="20" as="geometry" />
        </mxCell>
        <mxCell id="KQcOtN7dzlKegNRBwBD5-9" value="State" style="ellipse;whiteSpace=wrap;html=1;strokeColor=#000000;" vertex="1" parent="1">
          <mxGeometry y="35" width="50" height="20" as="geometry" />
        </mxCell>
        <mxCell id="KQcOtN7dzlKegNRBwBD5-11" value="AIRPORT" style="rounded=0;whiteSpace=wrap;html=1;strokeColor=#000000;" vertex="1" parent="1">
          <mxGeometry x="-90" y="110" width="80" height="20" as="geometry" />
        </mxCell>
        <mxCell id="KQcOtN7dzlKegNRBwBD5-13" value="" style="endArrow=none;html=1;" edge="1" parent="1">
          <mxGeometry width="50" height="50" relative="1" as="geometry">
            <mxPoint x="-70" y="110" as="sourcePoint" />
            <mxPoint x="-110" y="60" as="targetPoint" />
          </mxGeometry>
        </mxCell>
        <mxCell id="KQcOtN7dzlKegNRBwBD5-15" value="" style="endArrow=none;html=1;" edge="1" parent="1">
          <mxGeometry width="50" height="50" relative="1" as="geometry">
            <mxPoint x="-40" y="110" as="sourcePoint" />
            <mxPoint x="20" y="54.999999999999886" as="targetPoint" />
          </mxGeometry>
        </mxCell>
        <mxCell id="KQcOtN7dzlKegNRBwBD5-16" value="" style="endArrow=none;html=1;" edge="1" parent="1" source="KQcOtN7dzlKegNRBwBD5-11">
          <mxGeometry width="50" height="50" relative="1" as="geometry">
            <mxPoint y="104.99999999999989" as="sourcePoint" />
            <mxPoint x="-40" y="54.999999999999886" as="targetPoint" />
          </mxGeometry>
        </mxCell>
        <mxCell id="KQcOtN7dzlKegNRBwBD5-17" value="" style="endArrow=none;html=1;entryX=0.5;entryY=1;entryDx=0;entryDy=0;exitX=0.75;exitY=0;exitDx=0;exitDy=0;exitPerimeter=0;" edge="1" parent="1" source="KQcOtN7dzlKegNRBwBD5-11" target="KQcOtN7dzlKegNRBwBD5-8">
          <mxGeometry width="50" height="50" relative="1" as="geometry">
            <mxPoint x="-18" y="106" as="sourcePoint" />
            <mxPoint x="30" y="64.99999999999989" as="targetPoint" />
            <Array as="points" />
          </mxGeometry>
        </mxCell>
        <mxCell id="KQcOtN7dzlKegNRBwBD5-18" value="CAN_&lt;br&gt;LAND" style="rhombus;whiteSpace=wrap;html=1;strokeColor=#000000;" vertex="1" parent="1">
          <mxGeometry x="-90" y="160" width="80" height="50" as="geometry" />
        </mxCell>
        <mxCell id="KQcOtN7dzlKegNRBwBD5-19" value="" style="endArrow=none;html=1;entryX=0.5;entryY=1;entryDx=0;entryDy=0;exitX=0.5;exitY=0;exitDx=0;exitDy=0;" edge="1" parent="1" source="KQcOtN7dzlKegNRBwBD5-18" target="KQcOtN7dzlKegNRBwBD5-11">
          <mxGeometry width="50" height="50" relative="1" as="geometry">
            <mxPoint x="180" y="340" as="sourcePoint" />
            <mxPoint x="230" y="290" as="targetPoint" />
          </mxGeometry>
        </mxCell>
        <mxCell id="KQcOtN7dzlKegNRBwBD5-20" value="AIRPLANE_&lt;br&gt;TYPE" style="rounded=0;whiteSpace=wrap;html=1;strokeColor=#000000;" vertex="1" parent="1">
          <mxGeometry x="-95" y="240" width="90" height="40" as="geometry" />
        </mxCell>
        <mxCell id="KQcOtN7dzlKegNRBwBD5-21" value="TYPE" style="rhombus;whiteSpace=wrap;html=1;strokeColor=#000000;" vertex="1" parent="1">
          <mxGeometry x="-90" y="310" width="80" height="50" as="geometry" />
        </mxCell>
        <mxCell id="KQcOtN7dzlKegNRBwBD5-22" value="AIRPLANE" style="rounded=0;whiteSpace=wrap;html=1;strokeColor=#000000;" vertex="1" parent="1">
          <mxGeometry x="-90" y="420" width="90" height="20" as="geometry" />
        </mxCell>
        <mxCell id="KQcOtN7dzlKegNRBwBD5-23" value="&lt;u&gt;Airplane_id&lt;/u&gt;" style="ellipse;whiteSpace=wrap;html=1;strokeColor=#000000;" vertex="1" parent="1">
          <mxGeometry x="-150" y="380" width="70" height="20" as="geometry" />
        </mxCell>
        <mxCell id="KQcOtN7dzlKegNRBwBD5-25" value="Total_no_of_seats" style="ellipse;whiteSpace=wrap;html=1;strokeColor=#000000;" vertex="1" parent="1">
          <mxGeometry x="-30" y="380" width="130" height="20" as="geometry" />
        </mxCell>
        <mxCell id="KQcOtN7dzlKegNRBwBD5-26" value="ASSIGNED" style="rhombus;whiteSpace=wrap;html=1;strokeColor=#000000;" vertex="1" parent="1">
          <mxGeometry x="60" y="405" width="80" height="50" as="geometry" />
        </mxCell>
        <mxCell id="KQcOtN7dzlKegNRBwBD5-27" value="" style="rounded=0;whiteSpace=wrap;html=1;strokeColor=#000000;" vertex="1" parent="1">
          <mxGeometry x="190" y="412.5" width="100" height="27.5" as="geometry" />
        </mxCell>
        <mxCell id="KQcOtN7dzlKegNRBwBD5-28" value="LEG_INSTANCE" style="rounded=0;whiteSpace=wrap;html=1;strokeColor=#000000;" vertex="1" parent="1">
          <mxGeometry x="195" y="416.25" width="90" height="20" as="geometry" />
        </mxCell>
        <mxCell id="KQcOtN7dzlKegNRBwBD5-31" value="" style="rhombus;whiteSpace=wrap;html=1;strokeColor=#000000;" vertex="1" parent="1">
          <mxGeometry x="30" y="235" width="80" height="50" as="geometry" />
        </mxCell>
        <mxCell id="KQcOtN7dzlKegNRBwBD5-32" value="" style="rhombus;whiteSpace=wrap;html=1;strokeColor=#000000;" vertex="1" parent="1">
          <mxGeometry x="110" y="260" width="80" height="50" as="geometry" />
        </mxCell>
        <mxCell id="KQcOtN7dzlKegNRBwBD5-33" value="" style="endArrow=none;html=1;entryX=0.75;entryY=1;entryDx=0;entryDy=0;exitX=0.5;exitY=0;exitDx=0;exitDy=0;" edge="1" parent="1" source="KQcOtN7dzlKegNRBwBD5-31" target="KQcOtN7dzlKegNRBwBD5-11">
          <mxGeometry width="50" height="50" relative="1" as="geometry">
            <mxPoint x="210" y="340" as="sourcePoint" />
            <mxPoint x="260" y="290" as="targetPoint" />
          </mxGeometry>
        </mxCell>
        <mxCell id="KQcOtN7dzlKegNRBwBD5-34" value="" style="endArrow=none;html=1;entryX=0.75;entryY=1;entryDx=0;entryDy=0;exitX=0.5;exitY=0;exitDx=0;exitDy=0;" edge="1" parent="1" source="KQcOtN7dzlKegNRBwBD5-32">
          <mxGeometry width="50" height="50" relative="1" as="geometry">
            <mxPoint x="130" y="239.9999999999999" as="sourcePoint" />
            <mxPoint x="-20" y="129.9999999999999" as="targetPoint" />
          </mxGeometry>
        </mxCell>
        <mxCell id="KQcOtN7dzlKegNRBwBD5-36" value="" style="rhombus;whiteSpace=wrap;html=1;strokeColor=#000000;" vertex="1" parent="1">
          <mxGeometry x="150" y="16.25" width="130" height="80" as="geometry" />
        </mxCell>
        <mxCell id="KQcOtN7dzlKegNRBwBD5-37" value="" style="rhombus;whiteSpace=wrap;html=1;strokeColor=#000000;" vertex="1" parent="1">
          <mxGeometry x="150" y="120" width="130" height="80" as="geometry" />
        </mxCell>
        <mxCell id="KQcOtN7dzlKegNRBwBD5-38" value="" style="endArrow=none;html=1;exitX=1;exitY=0.25;exitDx=0;exitDy=0;entryX=0;entryY=0.5;entryDx=0;entryDy=0;" edge="1" parent="1" source="KQcOtN7dzlKegNRBwBD5-11" target="KQcOtN7dzlKegNRBwBD5-36">
          <mxGeometry width="50" height="50" relative="1" as="geometry">
            <mxPoint x="50" y="130" as="sourcePoint" />
            <mxPoint x="100" y="80" as="targetPoint" />
          </mxGeometry>
        </mxCell>
        <mxCell id="KQcOtN7dzlKegNRBwBD5-39" value="" style="endArrow=none;html=1;exitX=1;exitY=0.5;exitDx=0;exitDy=0;entryX=0;entryY=0.5;entryDx=0;entryDy=0;" edge="1" parent="1" source="KQcOtN7dzlKegNRBwBD5-11" target="KQcOtN7dzlKegNRBwBD5-37">
          <mxGeometry width="50" height="50" relative="1" as="geometry">
            <mxPoint y="124.99999999999989" as="sourcePoint" />
            <mxPoint x="200" y="54.999999999999886" as="targetPoint" />
          </mxGeometry>
        </mxCell>
        <mxCell id="KQcOtN7dzlKegNRBwBD5-40" value="" style="rounded=0;whiteSpace=wrap;html=1;strokeColor=#000000;" vertex="1" parent="1">
          <mxGeometry x="430" y="92.5" width="100" height="27.5" as="geometry" />
        </mxCell>
        <mxCell id="KQcOtN7dzlKegNRBwBD5-41" value="LEG_INSTANCE" style="rounded=0;whiteSpace=wrap;html=1;strokeColor=#000000;" vertex="1" parent="1">
          <mxGeometry x="435" y="96.25" width="90" height="20" as="geometry" />
        </mxCell>
        <mxCell id="KQcOtN7dzlKegNRBwBD5-44" value="INSTANCE_OF" style="rhombus;whiteSpace=wrap;html=1;strokeColor=#000000;" vertex="1" parent="1">
          <mxGeometry x="210" y="210" width="130" height="80" as="geometry" />
        </mxCell>
        <mxCell id="KQcOtN7dzlKegNRBwBD5-46" value="" style="ellipse;whiteSpace=wrap;html=1;strokeColor=#000000;" vertex="1" parent="1">
          <mxGeometry x="70" y="96.25" width="100" height="30" as="geometry" />
        </mxCell>
        <mxCell id="KQcOtN7dzlKegNRBwBD5-47" value="" style="ellipse;whiteSpace=wrap;html=1;strokeColor=#000000;" vertex="1" parent="1">
          <mxGeometry x="240" y="96.25" width="100" height="30" as="geometry" />
        </mxCell>
        <mxCell id="KQcOtN7dzlKegNRBwBD5-48" value="" style="endArrow=none;html=1;exitX=1;exitY=0.5;exitDx=0;exitDy=0;entryX=0;entryY=0.25;entryDx=0;entryDy=0;" edge="1" parent="1" source="KQcOtN7dzlKegNRBwBD5-36" target="KQcOtN7dzlKegNRBwBD5-40">
          <mxGeometry width="50" height="50" relative="1" as="geometry">
            <mxPoint x="300" y="70" as="sourcePoint" />
            <mxPoint x="350" y="20" as="targetPoint" />
          </mxGeometry>
        </mxCell>
        <mxCell id="KQcOtN7dzlKegNRBwBD5-49" value="" style="endArrow=none;html=1;exitX=1;exitY=0.5;exitDx=0;exitDy=0;entryX=0;entryY=0.5;entryDx=0;entryDy=0;" edge="1" parent="1" target="KQcOtN7dzlKegNRBwBD5-40">
          <mxGeometry width="50" height="50" relative="1" as="geometry">
            <mxPoint x="280" y="159.9999999999999" as="sourcePoint" />
            <mxPoint x="430" y="203.1249999999999" as="targetPoint" />
          </mxGeometry>
        </mxCell>
        <mxCell id="KQcOtN7dzlKegNRBwBD5-50" value="" style="endArrow=none;html=1;exitX=1;exitY=0;exitDx=0;exitDy=0;" edge="1" parent="1" source="KQcOtN7dzlKegNRBwBD5-37">
          <mxGeometry width="50" height="50" relative="1" as="geometry">
            <mxPoint x="230" y="176.25" as="sourcePoint" />
            <mxPoint x="280" y="126.25" as="targetPoint" />
          </mxGeometry>
        </mxCell>
        <mxCell id="KQcOtN7dzlKegNRBwBD5-52" value="" style="endArrow=none;html=1;entryX=0;entryY=1;entryDx=0;entryDy=0;" edge="1" parent="1" target="KQcOtN7dzlKegNRBwBD5-36">
          <mxGeometry width="50" height="50" relative="1" as="geometry">
            <mxPoint x="150" y="100" as="sourcePoint" />
            <mxPoint x="300" y="42.499999999999886" as="targetPoint" />
          </mxGeometry>
        </mxCell>
        <mxCell id="KQcOtN7dzlKegNRBwBD5-53" value="" style="ellipse;whiteSpace=wrap;html=1;strokeColor=#000000;" vertex="1" parent="1">
          <mxGeometry x="445" y="35" width="70" height="40" as="geometry" />
        </mxCell>
        <mxCell id="KQcOtN7dzlKegNRBwBD5-54" value="" style="rhombus;whiteSpace=wrap;html=1;strokeColor=#000000;" vertex="1" parent="1">
          <mxGeometry x="427.5" y="145" width="105" height="65" as="geometry" />
        </mxCell>
        <mxCell id="KQcOtN7dzlKegNRBwBD5-56" value="LEGS" style="rhombus;whiteSpace=wrap;html=1;strokeColor=#000000;" vertex="1" parent="1">
          <mxGeometry x="440" y="152.5" width="80" height="50" as="geometry" />
        </mxCell>
        <mxCell id="KQcOtN7dzlKegNRBwBD5-57" value="" style="ellipse;whiteSpace=wrap;html=1;strokeColor=#000000;" vertex="1" parent="1">
          <mxGeometry x="340" y="151.25" width="60" height="32.5" as="geometry" />
        </mxCell>
        <mxCell id="KQcOtN7dzlKegNRBwBD5-58" value="" style="ellipse;whiteSpace=wrap;html=1;strokeColor=#000000;" vertex="1" parent="1">
          <mxGeometry x="360" y="200" width="60" height="32.5" as="geometry" />
        </mxCell>
        <mxCell id="KQcOtN7dzlKegNRBwBD5-59" value="" style="ellipse;whiteSpace=wrap;html=1;strokeColor=#000000;" vertex="1" parent="1">
          <mxGeometry x="350" y="247.5" width="60" height="32.5" as="geometry" />
        </mxCell>
        <mxCell id="KQcOtN7dzlKegNRBwBD5-60" value="" style="ellipse;whiteSpace=wrap;html=1;strokeColor=#000000;" vertex="1" parent="1">
          <mxGeometry x="330" y="292.5" width="90" height="32.5" as="geometry" />
        </mxCell>
        <mxCell id="KQcOtN7dzlKegNRBwBD5-61" value="" style="rounded=0;whiteSpace=wrap;html=1;strokeColor=#000000;" vertex="1" parent="1">
          <mxGeometry x="440" y="230" width="80" height="30" as="geometry" />
        </mxCell>
        <mxCell id="KQcOtN7dzlKegNRBwBD5-63" value="" style="rhombus;whiteSpace=wrap;html=1;strokeColor=#000000;" vertex="1" parent="1">
          <mxGeometry x="430" y="285" width="105" height="65" as="geometry" />
        </mxCell>
        <mxCell id="KQcOtN7dzlKegNRBwBD5-64" value="FARES" style="rhombus;whiteSpace=wrap;html=1;strokeColor=#000000;" vertex="1" parent="1">
          <mxGeometry x="442.5" y="292.5" width="80" height="50" as="geometry" />
        </mxCell>
        <mxCell id="KQcOtN7dzlKegNRBwBD5-65" value="" style="rounded=0;whiteSpace=wrap;html=1;strokeColor=#000000;" vertex="1" parent="1">
          <mxGeometry x="420" y="381.25" width="140" height="35" as="geometry" />
        </mxCell>
        <mxCell id="KQcOtN7dzlKegNRBwBD5-66" value="FARE" style="rounded=0;whiteSpace=wrap;html=1;strokeColor=#000000;" vertex="1" parent="1">
          <mxGeometry x="427.5" y="388.75" width="125" height="20" as="geometry" />
        </mxCell>
        <mxCell id="KQcOtN7dzlKegNRBwBD5-67" value="" style="ellipse;whiteSpace=wrap;html=1;strokeColor=#000000;" vertex="1" parent="1">
          <mxGeometry x="330" y="341.25" width="60" height="32.5" as="geometry" />
        </mxCell>
        <mxCell id="KQcOtN7dzlKegNRBwBD5-68" value="" style="ellipse;whiteSpace=wrap;html=1;strokeColor=#000000;" vertex="1" parent="1">
          <mxGeometry x="330" y="380" width="60" height="32.5" as="geometry" />
        </mxCell>
        <mxCell id="KQcOtN7dzlKegNRBwBD5-69" value="" style="ellipse;whiteSpace=wrap;html=1;strokeColor=#000000;" vertex="1" parent="1">
          <mxGeometry x="140" y="213.75" width="60" height="30" as="geometry" />
        </mxCell>
        <mxCell id="KQcOtN7dzlKegNRBwBD5-70" value="" style="ellipse;whiteSpace=wrap;html=1;strokeColor=#000000;" vertex="1" parent="1">
          <mxGeometry x="-5" y="295" width="60" height="30" as="geometry" />
        </mxCell>
        <mxCell id="KQcOtN7dzlKegNRBwBD5-72" value="" style="rhombus;whiteSpace=wrap;html=1;strokeColor=#000000;" vertex="1" parent="1">
          <mxGeometry x="25" y="480" width="150" height="100" as="geometry" />
        </mxCell>
        <mxCell id="KQcOtN7dzlKegNRBwBD5-73" value="INSTANCE_OF" style="rhombus;whiteSpace=wrap;html=1;strokeColor=#000000;" vertex="1" parent="1">
          <mxGeometry x="35" y="490" width="130" height="80" as="geometry" />
        </mxCell>
        <mxCell id="KQcOtN7dzlKegNRBwBD5-74" value="" style="ellipse;whiteSpace=wrap;html=1;strokeColor=#000000;" vertex="1" parent="1">
          <mxGeometry x="150" y="470" width="90" height="32.5" as="geometry" />
        </mxCell>
        <mxCell id="KQcOtN7dzlKegNRBwBD5-75" value="" style="ellipse;whiteSpace=wrap;html=1;strokeColor=#000000;" vertex="1" parent="1">
          <mxGeometry x="-70" y="470" width="120" height="32.5" as="geometry" />
        </mxCell>
        <mxCell id="KQcOtN7dzlKegNRBwBD5-76" value="&lt;u&gt;Seat_no&lt;/u&gt;" style="ellipse;whiteSpace=wrap;html=1;strokeColor=#000000;" vertex="1" parent="1">
          <mxGeometry x="-95" y="513.75" width="60" height="32.5" as="geometry" />
        </mxCell>
        <mxCell id="KQcOtN7dzlKegNRBwBD5-78" value="" style="rounded=0;whiteSpace=wrap;html=1;strokeColor=#000000;" vertex="1" parent="1">
          <mxGeometry x="-95" y="570" width="70" height="30" as="geometry" />
        </mxCell>
        <mxCell id="KQcOtN7dzlKegNRBwBD5-79" value="SEAT" style="rounded=0;whiteSpace=wrap;html=1;strokeColor=#000000;" vertex="1" parent="1">
          <mxGeometry x="-87.5" y="575" width="55" height="20" as="geometry" />
        </mxCell>
        <mxCell id="KQcOtN7dzlKegNRBwBD5-80" value="" style="endArrow=none;html=1;exitX=0.5;exitY=0;exitDx=0;exitDy=0;" edge="1" parent="1" source="KQcOtN7dzlKegNRBwBD5-78">
          <mxGeometry width="50" height="50" relative="1" as="geometry">
            <mxPoint x="-110" y="595" as="sourcePoint" />
            <mxPoint x="-60" y="545" as="targetPoint" />
          </mxGeometry>
        </mxCell>
      </root>
    </mxGraphModel>
  </diagram>
</mxfile>
